<svg height="512pt" viewBox="0 0 512 512" width="512pt" xmlns="http://www.w3.org/2000/svg"><g fill="#ffde55"><path d="m387.640625 256c0 72.707031-58.933594 131.640625-131.640625 131.640625s-131.640625-58.933594-131.640625-131.640625 58.933594-131.640625 131.640625-131.640625 131.640625 58.933594 131.640625 131.640625zm0 0"/><path d="m271.421875 15.421875v43.066406c0 8.515625-6.910156 15.421875-15.421875 15.421875s-15.421875-6.90625-15.421875-15.421875v-43.066406c0-8.511719 6.910156-15.421875 15.421875-15.421875s15.421875 6.910156 15.421875 15.421875zm0 0"/><path d="m271.421875 453.511719v43.066406c0 8.511719-6.910156 15.421875-15.421875 15.421875s-15.421875-6.910156-15.421875-15.421875v-43.066406c0-8.515625 6.910156-15.421875 15.421875-15.421875s15.421875 6.90625 15.421875 15.421875zm0 0"/></g><path d="m406.566406 127.242188 30.453125-30.453126c6.023438-6.019531 6.023438-15.785156 0-21.808593-6.023437-6.023438-15.789062-6.023438-21.808593 0l-30.453126 30.453125c-6.023437 6.023437-6.023437 15.785156 0 21.808594 6.019532 6.023437 15.785157 6.023437 21.808594 0zm0 0" fill="#ffcd00"/><path d="m105.433594 384.757812-30.453125 30.453126c-6.023438 6.019531-6.023438 15.785156 0 21.808593 6.023437 6.023438 15.789062 6.023438 21.808593 0l30.453126-30.453125c6.023437-6.023437 6.023437-15.785156 0-21.808594-6.023438-6.023437-15.785157-6.023437-21.808594 0zm0 0" fill="#ffde55"/><path d="m496.578125 240.578125h-43.066406c-8.519531 0-15.421875 6.90625-15.421875 15.421875s6.902344 15.421875 15.421875 15.421875h43.066406c8.515625 0 15.421875-6.90625 15.421875-15.421875s-6.90625-15.421875-15.421875-15.421875zm0 0" fill="#ffcd00"/><path d="m58.488281 240.578125h-43.066406c-8.515625 0-15.421875 6.90625-15.421875 15.421875s6.90625 15.421875 15.421875 15.421875h43.066406c8.515625 0 15.421875-6.90625 15.421875-15.421875s-6.90625-15.421875-15.421875-15.421875zm0 0" fill="#ffde55"/><path d="m406.566406 384.757812c-6.023437-6.023437-15.785156-6.023437-21.808594 0-6.023437 6.023438-6.023437 15.785157 0 21.808594l30.453126 30.453125c6.019531 6.023438 15.785156 6.023438 21.808593 0 6.023438-6.023437 6.023438-15.789062 0-21.808593zm0 0" fill="#ffcd00"/><path d="m96.789062 74.980469c-6.019531-6.023438-15.785156-6.023438-21.808593 0-6.023438 6.023437-6.023438 15.789062 0 21.808593l30.453125 30.453126c6.023437 6.023437 15.785156 6.023437 21.808594 0 6.023437-6.023438 6.023437-15.785157 0-21.808594zm0 0" fill="#ffde55"/><path d="m256 73.910156v-73.910156c8.511719 0 15.421875 6.910156 15.421875 15.421875v43.066406c0 8.515625-6.910156 15.421875-15.421875 15.421875zm0 0" fill="#ffcd00"/><path d="m271.421875 453.511719v43.066406c0 8.511719-6.910156 15.421875-15.421875 15.421875v-73.910156c8.511719 0 15.421875 6.90625 15.421875 15.421875zm0 0" fill="#ffcd00"/><path d="m387.640625 256c0 72.707031-58.933594 131.640625-131.640625 131.640625v-263.28125c72.707031 0 131.640625 58.933594 131.640625 131.640625zm0 0" fill="#ffcd00"/></svg>